# xmcd
#
# Track frame offsets: 
#        150
#        25112
#        43167
#        63640
#        82535
#        105129
#        134502
#        153652
#        178967
#        198030
#        219737
#        246559
#        263520
#
# Disc length: 3741 seconds
#
# Revision: 0
# Processed by: cddbd v1.5.2PL0 Copyright (c) Steve Scherf et al.
# Submitted via: ExactAudioCopy v0.99pb3
#
DISCID=b00e9b0d
DTITLE=Rhythm Sheiks - The Hound Of Music
DYEAR=1996
DGENRE=Blues
TTITLE0=Wise To You
TTITLE1=What I Know Now
TTITLE2=Believe My Luck
TTITLE3=Christine
TTITLE4=New Automobile
TTITLE5=Cold Familiar Ground
TTITLE6=Bad Checks
TTITLE7=Think It Over
TTITLE8=Sally's Place
TTITLE9=Get With The Blues
TTITLE10=Somebody New
TTITLE11=Lean On The Blues
TTITLE12=C'est La Vie
EXTD=
EXTT0=
EXTT1=
EXTT2=
EXTT3=
EXTT4=
EXTT5=
EXTT6=
EXTT7=
EXTT8=
EXTT9=
EXTT10=
EXTT11=
EXTT12=
PLAYORDER=
